<svg width="138" height="128" viewBox="0 0 138 128" fill="none" xmlns="http://www.w3.org/2000/svg">
<path d="M30.8582 39.1113L49.9116 51.1455C51.2923 51.966 52.9491 51.6925 53.7775 50.325L67.8604 28.7181L76.6968 42.1198L68.4127 47.5899C67.5843 48.137 67.032 49.5045 67.3082 50.5985C67.5843 51.6925 68.4127 52.513 69.7934 52.7865L100.168 56.0686H100.445C101.825 56.0686 102.93 55.2481 103.206 53.8806L109.833 24.889C110.109 23.795 109.557 22.701 108.729 21.8804C107.624 21.3334 106.52 21.3334 105.691 21.8804L98.7877 26.8035L82.4957 1.36753C81.9434 0.547011 81.115 0 80.2866 0H54.3298H54.0536C54.0536 0 54.0536 0 53.7775 0C53.5013 0 53.2252 0.273505 52.9491 0.273505C52.6729 0.547011 52.3968 0.547011 52.3968 0.820517L30.582 34.4617C30.3059 35.0087 30.0297 35.8292 30.3059 36.6497C29.7536 38.0173 30.0297 38.8378 30.8582 39.1113ZM95.7502 32.5471C96.3025 33.0942 96.8548 33.6412 97.6832 33.6412C98.5116 33.9147 99.34 33.6412 99.8923 33.0942L102.93 30.6326L98.5116 50.0515L77.5252 47.8635L81.9434 44.8549C83.3241 44.0344 83.6002 42.3933 82.7718 41.0258L70.0695 21.8804L59.3002 5.74361H78.6298L95.7502 32.5471ZM54.0536 8.20516L64.2707 23.5215L50.4638 45.1284L36.1047 36.1027L54.0536 8.20516Z" fill="#D1DECF"/>
<path d="M138 94.6325C138 94.0854 138 93.8119 137.724 93.5384L122.536 56.3417C122.26 55.7947 121.708 55.2477 121.156 54.9742C120.603 54.7007 119.775 54.7007 118.947 54.9742L98.2364 63.4528C96.8557 63.9999 96.0273 65.6409 96.8557 67.0084L106.521 91.0769L90.5046 90.5299L90.7808 80.4102C90.7808 79.3162 90.2285 78.2221 89.1239 77.6751C88.0194 77.1281 86.9148 77.4016 86.0864 78.4956L65.3762 101.47C64.5478 102.564 64.5478 104.205 65.3762 105.026L85.5342 127.18C86.0864 127.727 86.9148 128 87.4671 128C87.7432 128 88.2955 128 88.5717 127.727C89.6762 127.18 90.2285 126.359 90.2285 124.992L89.9523 116.513L120.327 117.88C121.156 117.88 122.26 117.607 122.813 116.786L137.724 95.7265C137.724 95.7265 137.724 95.453 138 95.453C138 95.453 138 95.453 138 95.1795C138 95.1795 138 94.906 138 94.6325ZM102.931 67.5554L118.671 61.2648L131.097 91.6239L112.596 91.0769L102.931 67.5554ZM118.947 112.684L87.191 111.316C86.3626 111.316 85.8103 111.59 85.258 112.137C84.7057 112.684 84.4296 113.504 84.4296 114.051V117.88L70.8989 103.111L84.9819 87.5213L84.7057 92.7179C84.7057 94.359 85.8103 95.453 87.4671 95.453L110.386 96.2735L129.992 96.8205L118.947 112.684Z" fill="#D1DECF"/>
<path d="M57.0912 94.907L31.1344 94.3599L38.0378 79.8642L47.1503 84.2402C48.2549 84.7872 49.3594 84.5137 50.1878 83.6932C51.0162 82.8727 51.2923 81.7787 50.7401 80.6847L37.7617 52.7871C37.2094 51.4196 35.8287 50.8726 34.448 51.4196L6.00597 60.4453C4.90142 60.7188 4.07301 61.8128 4.07301 62.9068C4.07301 64.0008 4.62529 65.0949 5.72983 65.6419L13.4617 68.6504L0.207102 95.7275C-0.0690341 96.548 -0.0690341 97.642 0.207102 98.4625L13.7378 120.343L14.0139 120.616C14.0139 120.616 14.0139 120.616 14.0139 120.89C14.2901 121.163 14.5662 121.437 14.8423 121.437C15.1185 121.437 15.3946 121.71 15.9469 121.71L56.2628 122.805C57.0912 122.805 57.6435 122.531 58.1958 121.984C58.748 121.437 59.0242 120.89 59.0242 120.069L59.5764 97.9155C59.8526 96.2745 58.4719 94.907 57.0912 94.907ZM19.8128 68.3769C20.0889 67.8299 20.0889 67.0094 19.8128 66.1889C19.5367 65.3684 18.9844 64.8213 18.156 64.5478L14.5662 63.1803L33.6196 56.8897L42.456 75.7616L37.7617 73.5735C36.381 73.0265 34.7242 73.5735 34.1719 74.9411L24.231 95.454L15.9469 112.958L6.00597 96.548L19.8128 68.3769ZM53.7776 117.334L20.3651 116.24L28.373 99.5565L54.0537 100.377L53.7776 117.334Z" fill="#D1DECF"/>
</svg>
